<svg xmlns="http://www.w3.org/2000/svg" viewBox="0 0 128 128" role="img" aria-label="Padel Endurance">
  <defs>
    <linearGradient id="g" x1="0" y1="0" x2="1" y2="1">
      <stop offset="0" stop-color="#dfff00"/>
      <stop offset="1" stop-color="#8aa800"/>
    </linearGradient>
  </defs>
  <circle cx="64" cy="64" r="58" fill="#090d10" stroke="#dfff00" stroke-width="4"/>
  <g transform="translate(22 13) rotate(-12 42 46)">
    <ellipse cx="44" cy="39" rx="30" ry="36" fill="none" stroke="#fff" stroke-width="7"/>
    <ellipse cx="44" cy="39" rx="22" ry="28" fill="#151b20" stroke="url(#g)" stroke-width="3"/>
    <g fill="#dfff00">
      <circle cx="35" cy="27" r="2.2"/><circle cx="44" cy="27" r="2.2"/><circle cx="53" cy="27" r="2.2"/>
      <circle cx="31" cy="36" r="2.2"/><circle cx="40" cy="36" r="2.2"/><circle cx="49" cy="36" r="2.2"/><circle cx="58" cy="36" r="2.2"/>
      <circle cx="35" cy="45" r="2.2"/><circle cx="44" cy="45" r="2.2"/><circle cx="53" cy="45" r="2.2"/>
      <circle cx="40" cy="54" r="2.2"/><circle cx="49" cy="54" r="2.2"/>
    </g>
    <path d="M39 73 L33 110 Q31 121 42 123 Q52 124 55 114 L61 74" fill="#f4f4f4" stroke="#090d10" stroke-width="4"/>
  </g>
  <circle cx="99" cy="29" r="12" fill="#c21a8e" stroke="#fff" stroke-width="3"/>
</svg>
